<svg width="445" height="74" viewBox="0 0 445 74" fill="none" xmlns="http://www.w3.org/2000/svg">
<path d="M39.08 4.992V54.624C39.08 57.44 38.6 60 37.64 62.304C36.68 64.608 35.304 66.56 33.512 68.16C31.784 69.76 29.704 71.008 27.272 71.904C24.84 72.736 22.184 73.152 19.304 73.152C14.184 73.152 9.96 71.84 6.632 69.216C3.304 66.528 1.128 62.784 0.104 57.984L7.784 56.352C8.104 57.696 8.52 58.976 9.032 60.192C9.608 61.344 10.344 62.368 11.24 63.264C12.2 64.096 13.352 64.768 14.696 65.28C16.04 65.792 17.64 66.048 19.496 66.048C23.144 66.048 25.96 65.024 27.944 62.976C29.992 60.864 31.016 57.6 31.016 53.184V12H6.824V4.992H39.08ZM79.3625 73.152C75.9065 73.152 72.7705 72.544 69.9545 71.328C67.2025 70.112 64.8345 68.384 62.8505 66.144C60.9305 63.84 59.4585 61.12 58.4345 57.984C57.4105 54.784 56.8985 51.2 56.8985 47.232C56.8985 43.328 57.4105 39.776 58.4345 36.576C59.4585 33.376 60.9305 30.656 62.8505 28.416C64.8345 26.112 67.2025 24.352 69.9545 23.136C72.7705 21.92 75.9065 21.312 79.3625 21.312C82.8185 21.312 85.9225 21.92 88.6745 23.136C91.4905 24.352 93.8585 26.112 95.7785 28.416C97.7625 30.656 99.2665 33.376 100.291 36.576C101.315 39.776 101.827 43.328 101.827 47.232C101.827 51.2 101.315 54.784 100.291 57.984C99.2665 61.12 97.7625 63.84 95.7785 66.144C93.8585 68.384 91.4905 70.112 88.6745 71.328C85.9225 72.544 82.8185 73.152 79.3625 73.152ZM79.3625 66.528C83.6505 66.528 87.1065 65.248 89.7305 62.688C92.3545 60.128 93.6665 56.16 93.6665 50.784V43.68C93.6665 38.304 92.3545 34.336 89.7305 31.776C87.1065 29.216 83.6505 27.936 79.3625 27.936C75.0745 27.936 71.6185 29.216 68.9945 31.776C66.3705 34.336 65.0585 38.304 65.0585 43.68V50.784C65.0585 56.16 66.3705 60.128 68.9945 62.688C71.6185 65.248 75.0745 66.528 79.3625 66.528ZM117.533 72V22.464H125.213V30.528H125.597C126.109 29.312 126.749 28.16 127.517 27.072C128.285 25.92 129.213 24.928 130.301 24.096C131.453 23.264 132.797 22.592 134.333 22.08C135.869 21.568 137.661 21.312 139.709 21.312C144.893 21.312 149.053 22.976 152.189 26.304C155.325 29.568 156.893 34.208 156.893 40.224V72H149.213V41.568C149.213 37.024 148.221 33.664 146.237 31.488C144.253 29.248 141.341 28.128 137.501 28.128C135.965 28.128 134.461 28.32 132.989 28.704C131.517 29.088 130.205 29.664 129.053 30.432C127.901 31.2 126.973 32.192 126.269 33.408C125.565 34.624 125.213 36.032 125.213 37.632V72H117.533ZM213.208 72C210.2 72 208.056 71.232 206.776 69.696C205.496 68.16 204.696 66.24 204.376 63.936H203.896C202.808 66.816 201.048 69.088 198.616 70.752C196.248 72.352 193.048 73.152 189.016 73.152C183.832 73.152 179.704 71.808 176.632 69.12C173.56 66.432 172.023 62.752 172.023 58.08C172.023 53.472 173.688 49.92 177.016 47.424C180.408 44.928 185.848 43.68 193.336 43.68H203.896V38.784C203.896 35.136 202.872 32.416 200.824 30.624C198.776 28.768 195.864 27.84 192.088 27.84C188.76 27.84 186.04 28.512 183.928 29.856C181.816 31.136 180.12 32.896 178.84 35.136L173.656 31.296C174.296 30.016 175.16 28.768 176.248 27.552C177.336 26.336 178.68 25.28 180.28 24.384C181.88 23.424 183.704 22.688 185.752 22.176C187.8 21.6 190.072 21.312 192.568 21.312C198.392 21.312 203 22.784 206.392 25.728C209.848 28.672 211.576 32.768 211.576 38.016V65.28H218.488V72H213.208ZM190.359 66.72C192.344 66.72 194.136 66.496 195.736 66.048C197.4 65.536 198.84 64.896 200.056 64.128C201.272 63.296 202.2 62.336 202.84 61.248C203.544 60.096 203.896 58.88 203.896 57.6V49.44H193.336C188.728 49.44 185.368 50.08 183.256 51.36C181.144 52.64 180.088 54.496 180.088 56.928V58.944C180.088 61.504 180.984 63.456 182.776 64.8C184.632 66.08 187.16 66.72 190.359 66.72ZM254.45 72C250.674 72 247.89 70.944 246.098 68.832C244.37 66.72 243.506 64 243.506 60.672V28.992H226.994V22.464H239.282C240.946 22.464 242.098 22.144 242.738 21.504C243.442 20.8 243.794 19.616 243.794 17.952V4.992H251.186V22.464H273.746V28.992H251.186V65.472H273.746V72H254.45ZM290.221 0.959999H297.901V30.528H298.285C298.797 29.312 299.437 28.16 300.205 27.072C300.973 25.92 301.901 24.928 302.989 24.096C304.141 23.264 305.485 22.592 307.021 22.08C308.557 21.568 310.349 21.312 312.397 21.312C317.581 21.312 321.741 22.976 324.877 26.304C328.013 29.568 329.581 34.208 329.581 40.224V72H321.901V41.568C321.901 37.024 320.909 33.664 318.925 31.488C316.941 29.248 314.029 28.128 310.189 28.128C308.653 28.128 307.149 28.32 305.677 28.704C304.205 29.088 302.893 29.664 301.741 30.432C300.589 31.2 299.661 32.192 298.957 33.408C298.253 34.624 297.901 36.032 297.901 37.632V72H290.221V0.959999ZM385.895 72C382.887 72 380.743 71.232 379.463 69.696C378.183 68.16 377.383 66.24 377.063 63.936H376.583C375.495 66.816 373.735 69.088 371.303 70.752C368.935 72.352 365.735 73.152 361.703 73.152C356.519 73.152 352.391 71.808 349.319 69.12C346.247 66.432 344.711 62.752 344.711 58.08C344.711 53.472 346.375 49.92 349.703 47.424C353.095 44.928 358.535 43.68 366.023 43.68H376.583V38.784C376.583 35.136 375.559 32.416 373.511 30.624C371.463 28.768 368.551 27.84 364.775 27.84C361.447 27.84 358.727 28.512 356.615 29.856C354.503 31.136 352.807 32.896 351.527 35.136L346.343 31.296C346.983 30.016 347.847 28.768 348.935 27.552C350.023 26.336 351.367 25.28 352.967 24.384C354.567 23.424 356.391 22.688 358.439 22.176C360.487 21.6 362.759 21.312 365.255 21.312C371.079 21.312 375.687 22.784 379.079 25.728C382.535 28.672 384.263 32.768 384.263 38.016V65.28H391.175V72H385.895ZM363.047 66.72C365.031 66.72 366.823 66.496 368.423 66.048C370.087 65.536 371.527 64.896 372.743 64.128C373.959 63.296 374.887 62.336 375.527 61.248C376.231 60.096 376.583 58.88 376.583 57.6V49.44H366.023C361.415 49.44 358.055 50.08 355.943 51.36C353.831 52.64 352.775 54.496 352.775 56.928V58.944C352.775 61.504 353.671 63.456 355.463 64.8C357.319 66.08 359.847 66.72 363.047 66.72ZM405.346 72V22.464H413.026V30.528H413.41C413.922 29.312 414.562 28.16 415.33 27.072C416.098 25.92 417.026 24.928 418.114 24.096C419.266 23.264 420.61 22.592 422.146 22.08C423.682 21.568 425.474 21.312 427.522 21.312C432.706 21.312 436.866 22.976 440.002 26.304C443.138 29.568 444.706 34.208 444.706 40.224V72H437.026V41.568C437.026 37.024 436.034 33.664 434.05 31.488C432.066 29.248 429.154 28.128 425.314 28.128C423.778 28.128 422.274 28.32 420.802 28.704C419.33 29.088 418.018 29.664 416.866 30.432C415.714 31.2 414.786 32.192 414.082 33.408C413.378 34.624 413.026 36.032 413.026 37.632V72H405.346Z" fill="#FFF7F8"/>
</svg>
