<svg width="108" height="73" viewBox="0 0 108 73" fill="none" xmlns="http://www.w3.org/2000/svg">
<g clip-path="url(#clip0_6_952)">
<path d="M43.08 0.992004V50.624C43.08 53.44 42.6 56 41.64 58.304C40.68 60.608 39.304 62.56 37.512 64.16C35.784 65.76 33.704 67.008 31.272 67.904C28.84 68.736 26.184 69.152 23.304 69.152C18.184 69.152 13.96 67.84 10.632 65.216C7.304 62.528 5.128 58.784 4.104 53.984L11.784 52.352C12.104 53.696 12.52 54.976 13.032 56.192C13.608 57.344 14.344 58.368 15.24 59.264C16.2 60.096 17.352 60.768 18.696 61.28C20.04 61.792 21.64 62.048 23.496 62.048C27.144 62.048 29.96 61.024 31.944 58.976C33.992 56.864 35.016 53.6 35.016 49.184V8.00001H10.824V0.992004H43.08Z" fill="#FF0000"/>
<path d="M71.2665 68H63.2025V0.992004H87.5865C93.7945 0.992004 98.5305 2.688 101.795 6.08C105.059 9.472 106.691 14.208 106.691 20.288C106.691 25.728 105.283 30.08 102.467 33.344C99.6505 36.608 95.5545 38.496 90.1785 39.008L107.267 68H98.2425L81.9225 39.392H71.2665V68ZM87.3945 32.576C90.7865 32.576 93.4105 31.744 95.2665 30.08C97.1865 28.352 98.1465 25.92 98.1465 22.784V17.792C98.1465 14.656 97.1865 12.256 95.2665 10.592C93.4105 8.864 90.7865 8.00001 87.3945 8.00001H71.2665V32.576H87.3945Z" fill="#FF0000"/>
<path d="M39.5445 4.52753V54.1595C39.5445 56.9755 39.0645 59.5355 38.1045 61.8395C37.2667 63.8503 36.112 65.5929 34.6405 67.0675C34.4259 67.2826 34.2046 67.4919 33.9765 67.6955C32.2485 69.2955 30.1685 70.5435 27.7365 71.4395C25.3045 72.2715 22.6485 72.6875 19.7685 72.6875C14.6485 72.6875 10.4245 71.3755 7.09648 68.7515C3.76848 66.0635 1.59248 62.3195 0.568481 57.5195L8.24848 55.8875C8.56848 57.2315 8.98448 58.5115 9.49648 59.7275C10.0725 60.8795 10.8085 61.9035 11.7045 62.7995C12.6645 63.6315 13.8165 64.3035 15.1605 64.8155C16.5045 65.3275 18.1045 65.5835 19.9605 65.5835C23.6085 65.5835 26.4245 64.5595 28.4085 62.5115C30.4565 60.3995 31.4805 57.1355 31.4805 52.7195V11.5355H7.28848V4.52753H39.5445Z" fill="#25F4EE"/>
<path d="M67.731 71.5355H59.667V4.52753H84.051C90.259 4.52753 94.995 6.22353 98.259 9.61552C101.523 13.0075 103.155 17.7435 103.155 23.8235C103.155 29.2635 101.747 33.6155 98.931 36.8795C96.115 40.1435 92.019 42.0315 86.643 42.5435L103.731 71.5355H94.707L78.387 42.9275H67.731V71.5355ZM83.859 36.1115C87.251 36.1115 89.875 35.2795 91.731 33.6155C93.651 31.8875 94.611 29.4555 94.611 26.3195V21.3275C94.611 18.1915 93.651 15.7915 91.731 14.1275C89.875 12.3995 87.251 11.5355 83.859 11.5355H67.731V36.1115H83.859Z" fill="#25F4EE"/>
<path d="M101.794 6.08C98.5305 2.688 93.7945 0.992004 87.5865 0.992004L84.051 4.52754C90.259 4.52754 94.995 6.22354 98.259 9.61554L101.794 6.08Z" fill="#25F4EE"/>
<path d="M106.691 20.288C106.691 14.208 105.059 9.47202 101.795 6.08002L98.259 9.61555C101.523 13.0076 103.155 17.7436 103.155 23.8236L106.691 20.288Z" fill="#25F4EE"/>
<path d="M95.2665 10.592C97.1865 12.256 98.1465 14.656 98.1465 17.792L94.611 21.3275C94.611 18.1915 93.651 15.7915 91.731 14.1275L95.2665 10.592Z" fill="#25F4EE"/>
<path d="M87.3945 8C90.7865 8 93.4105 8.864 95.2665 10.592L91.731 14.1275C89.875 12.3995 87.2509 11.5355 83.8589 11.5355L87.3945 8Z" fill="#25F4EE"/>
<path d="M98.1465 17.792V22.784L94.611 26.3195V21.3275L98.1465 17.792Z" fill="#25F4EE"/>
<path d="M102.467 33.344C105.283 30.08 106.691 25.728 106.691 20.288L103.155 23.8235C103.155 29.2635 101.747 33.6155 98.931 36.8795L102.467 33.344Z" fill="#25F4EE"/>
<path d="M87.5865 0.992004H63.2025L59.667 4.52754H84.051L87.5865 0.992004Z" fill="#25F4EE"/>
<path d="M71.2665 8H87.3945L83.859 11.5355H67.731L71.2665 8Z" fill="#25F4EE"/>
<path d="M98.1465 22.784C98.1465 25.92 97.1865 28.352 95.2665 30.08L92.3572 32.9893C92.1613 33.2074 91.9525 33.4161 91.731 33.6155L92.3572 32.9893C93.8597 31.3169 94.611 29.0937 94.611 26.3195L98.1465 22.784Z" fill="#25F4EE"/>
<path d="M102.466 33.344C101.991 33.8946 101.48 34.406 100.932 34.8782L98.9309 36.8795C96.1149 40.1435 92.0189 42.0315 86.6429 42.5435L90.1785 39.008C94.6477 38.5824 98.2323 37.2058 100.932 34.8782L102.466 33.344Z" fill="#25F4EE"/>
<path d="M95.2665 30.08C93.4105 31.744 90.7865 32.576 87.3945 32.576L83.8589 36.1115C87.2509 36.1115 89.875 35.2796 91.731 33.6156L95.2665 30.08Z" fill="#25F4EE"/>
<path d="M71.2665 32.576V8L67.731 11.5355V36.1115L71.2665 32.576Z" fill="#25F4EE"/>
<path d="M87.3945 32.576H71.2665L67.731 36.1115H83.859L87.3945 32.576Z" fill="#25F4EE"/>
<path d="M107.266 68L90.1785 39.008L86.6429 42.5435L103.731 71.5355L107.266 68Z" fill="#25F4EE"/>
<path d="M71.2665 39.392H81.9225L78.387 42.9275H67.731L71.2665 39.392Z" fill="#25F4EE"/>
<path d="M81.9225 39.392L98.2425 68L94.707 71.5355L78.387 42.9275L81.9225 39.392Z" fill="#25F4EE"/>
<path d="M98.2425 68H107.267L103.731 71.5355H94.707L98.2425 68Z" fill="#25F4EE"/>
<path d="M63.2025 0.992004V68L59.667 71.5355V4.52754L63.2025 0.992004Z" fill="#25F4EE"/>
<path d="M43.08 0.992004H10.824L7.28845 4.52754H39.5445L43.08 0.992004Z" fill="#25F4EE"/>
<path d="M71.2665 68V39.392L67.731 42.9275V71.5355L71.2665 68Z" fill="#25F4EE"/>
<path d="M43.08 50.624V0.992004L39.5445 4.52754V54.1595L43.08 50.624Z" fill="#25F4EE"/>
<path d="M10.824 8H35.016L31.4805 11.5355H7.28845L10.824 8Z" fill="#25F4EE"/>
<path d="M35.016 8V49.184L31.4805 52.7195V11.5355L35.016 8Z" fill="#25F4EE"/>
<path d="M10.824 0.992004V8.00001L7.28845 11.5355V4.52754L10.824 0.992004Z" fill="#25F4EE"/>
<path d="M63.2025 68H71.2665L67.731 71.5355H59.667L63.2025 68Z" fill="#25F4EE"/>
<path d="M41.64 58.304C42.6 56 43.08 53.44 43.08 50.624L39.5445 54.1595C39.5445 56.9755 39.0645 59.5355 38.1045 61.8395L41.64 58.304Z" fill="#25F4EE"/>
<path d="M35.016 49.184C35.016 53.6 33.992 56.864 31.944 58.976L28.4084 62.5116C30.4564 60.3996 31.4804 57.1356 31.4804 52.7196L35.016 49.184Z" fill="#25F4EE"/>
<path d="M38.176 63.532C39.6475 62.0574 40.8022 60.3148 41.64 58.304L38.1045 61.8396C37.2667 63.8503 36.112 65.593 34.6405 67.0675L38.176 63.532Z" fill="#25F4EE"/>
<path d="M38.176 63.532C38.1683 63.5397 38.1606 63.5473 38.153 63.555L34.6404 67.0675C34.4258 67.2826 34.2045 67.4919 33.9764 67.6955L37.512 64.16C37.7319 63.9636 37.9456 63.762 38.153 63.555L38.176 63.532Z" fill="#25F4EE"/>
<path d="M31.272 67.904C33.704 67.008 35.784 65.76 37.512 64.16L33.9764 67.6955C32.2484 69.2955 30.1684 70.5435 27.7365 71.4395L31.272 67.904Z" fill="#25F4EE"/>
<path d="M23.496 62.048C27.0182 62.048 29.7648 61.0934 31.7358 59.1842L31.944 58.976C31.8756 59.0466 31.8062 59.116 31.7358 59.1842L28.4084 62.5115C26.4244 64.5595 23.6084 65.5835 19.9604 65.5835L23.496 62.048Z" fill="#25F4EE"/>
<path d="M23.496 62.048C21.64 62.048 20.04 61.792 18.696 61.28L15.1605 64.8155C16.5045 65.3275 18.1045 65.5835 19.9605 65.5835L23.496 62.048Z" fill="#25F4EE"/>
<path d="M23.304 69.152C26.184 69.152 28.84 68.736 31.272 67.904L27.7365 71.4395C25.3045 72.2715 22.6485 72.6875 19.7685 72.6875L23.304 69.152Z" fill="#25F4EE"/>
<path d="M13.032 56.192C12.52 54.976 12.104 53.696 11.784 52.352L8.24847 55.8875C8.56847 57.2315 8.98447 58.5115 9.49647 59.7275L13.032 56.192Z" fill="#25F4EE"/>
<path d="M18.696 61.28C17.352 60.768 16.2 60.096 15.24 59.264L11.7045 62.7995C12.6645 63.6315 13.8165 64.3035 15.1605 64.8155L18.696 61.28Z" fill="#25F4EE"/>
<path d="M15.24 59.264C14.344 58.368 13.608 57.344 13.032 56.192L9.49646 59.7276C10.0725 60.8796 10.8085 61.9035 11.7045 62.7995L15.24 59.264Z" fill="#25F4EE"/>
<path d="M11.784 52.352L4.10402 53.984L0.568481 57.5195L8.24848 55.8875L11.784 52.352Z" fill="#25F4EE"/>
<path d="M10.632 65.216C13.96 67.84 18.184 69.152 23.304 69.152L19.7685 72.6875C14.6485 72.6875 10.4245 71.3755 7.0965 68.7515L10.632 65.216Z" fill="#25F4EE"/>
<path d="M4.10402 53.984C5.12802 58.784 7.30402 62.528 10.632 65.216L7.09648 68.7515C3.76848 66.0635 1.59248 62.3195 0.568481 57.5195L4.10402 53.984Z" fill="#25F4EE"/>
<path d="M43.08 0.992004V50.624C43.08 53.44 42.6 56 41.64 58.304C40.68 60.608 39.304 62.56 37.512 64.16C35.784 65.76 33.704 67.008 31.272 67.904C28.84 68.736 26.184 69.152 23.304 69.152C18.184 69.152 13.96 67.84 10.632 65.216C7.304 62.528 5.128 58.784 4.104 53.984L11.784 52.352C12.104 53.696 12.52 54.976 13.032 56.192C13.608 57.344 14.344 58.368 15.24 59.264C16.2 60.096 17.352 60.768 18.696 61.28C20.04 61.792 21.64 62.048 23.496 62.048C27.144 62.048 29.96 61.024 31.944 58.976C33.992 56.864 35.016 53.6 35.016 49.184V8.00001H10.824V0.992004H43.08Z" fill="#FF0000"/>
<path d="M71.2665 68H63.2025V0.992004H87.5865C93.7945 0.992004 98.5305 2.688 101.795 6.08C105.059 9.472 106.691 14.208 106.691 20.288C106.691 25.728 105.283 30.08 102.467 33.344C99.6505 36.608 95.5545 38.496 90.1785 39.008L107.267 68H98.2425L81.9225 39.392H71.2665V68ZM87.3945 32.576C90.7865 32.576 93.4105 31.744 95.2665 30.08C97.1865 28.352 98.1465 25.92 98.1465 22.784V17.792C98.1465 14.656 97.1865 12.256 95.2665 10.592C93.4105 8.864 90.7865 8.00001 87.3945 8.00001H71.2665V32.576H87.3945Z" fill="#FF0000"/>
</g>
<defs>
<clipPath id="clip0_6_952">
<rect width="108" height="73" fill="white"/>
</clipPath>
</defs>
</svg>
