<svg width="108" height="73" viewBox="0 0 108 73" fill="none" xmlns="http://www.w3.org/2000/svg">
<g clip-path="url(#clip0_6_950)">
<path d="M40.026 4.48552V4.53552V54.1675C40.026 56.9893 39.545 59.5559 38.5822 61.8668C37.742 63.8832 36.5837 65.6314 35.1074 67.1108C34.8922 67.3264 34.6703 67.5363 34.4417 67.7405C34.4415 67.7406 34.4414 67.7407 34.4413 67.7408L34.408 67.7035C32.68 69.3035 30.6 70.5515 28.168 71.4475L40.026 4.48552ZM40.026 4.48552H39.976H7.72H7.67V4.53552V11.5435V11.5935H7.72H31.862M40.026 4.48552L31.862 11.5935M31.862 11.5935V52.7275C31.862 57.1369 30.8394 60.3858 28.8041 62.4847L28.84 62.5195L28.8041 62.4847C26.832 64.5205 24.0304 65.5415 20.392 65.5415C18.5404 65.5415 16.9467 65.2861 15.6098 64.7768C14.2712 64.2668 13.1249 63.5981 12.1701 62.7709C11.2789 61.8794 10.5467 60.8607 9.97344 59.7146L31.862 11.5935ZM68.1625 71.5935H68.2125V71.5435V42.9855H78.7895L95.0951 71.5683L95.1095 71.5935H95.1385H104.163H104.25L104.206 71.5181L87.1574 42.5937C92.5045 42.07 96.5876 40.1804 99.4004 36.9202C102.226 33.6449 103.637 29.2803 103.637 23.8315C103.637 17.7425 102.002 12.9927 98.7265 9.58885C95.4504 6.18422 90.6996 4.48552 84.4825 4.48552H60.0985H60.0485V4.53552V71.5435V71.5935H60.0985H68.1625ZM92.1284 14.1721L92.1298 14.1733C94.0363 15.8256 94.9925 18.2103 94.9925 21.3355V26.3275C94.9925 29.4526 94.0363 31.8698 92.1291 33.5863C90.2852 35.2395 87.6747 36.0695 84.2905 36.0695H68.2125V11.5935H84.2905C87.6742 11.5935 90.2844 12.4553 92.1284 14.1721Z" stroke="black" stroke-width="0.1"/>
<path d="M88.018 0.95C88.0048 0.95 87.992 0.955268 87.9827 0.964645L84.4471 4.50018C84.4328 4.51448 84.4285 4.53598 84.4363 4.55467C84.444 4.57335 84.4623 4.58553 84.4825 4.58553C90.6814 4.58553 95.4026 6.27884 98.6545 9.6582C98.6638 9.66788 98.6766 9.6734 98.69 9.67353C98.7034 9.67366 98.7163 9.66838 98.7258 9.65889L102.261 6.12335C102.281 6.10409 102.281 6.07296 102.262 6.05333C98.9859 2.64869 94.2351 0.95 88.018 0.95Z" stroke="black" stroke-width="0.1" stroke-linejoin="round"/>
<path d="M102.262 6.05334C102.253 6.04367 102.24 6.03814 102.227 6.03802C102.213 6.03789 102.2 6.04316 102.191 6.05266L98.6551 9.58819C98.6359 9.60745 98.6356 9.63859 98.6545 9.65822C101.907 13.0384 103.536 17.7606 103.536 23.8316C103.536 23.8518 103.549 23.87 103.567 23.8777C103.586 23.8855 103.608 23.8812 103.622 23.8669L107.157 20.3314C107.167 20.322 107.172 20.3093 107.172 20.296C107.172 14.207 105.537 9.45714 102.262 6.05334Z" stroke="black" stroke-width="0.1" stroke-linejoin="round"/>
<path d="M98.6134 17.8354C98.6227 17.826 98.628 17.8133 98.628 17.8C98.628 14.6532 97.6642 12.2379 95.7308 10.5622C95.7109 10.545 95.6812 10.5461 95.6627 10.5647L92.1271 14.1002C92.1173 14.11 92.112 14.1235 92.1125 14.1373C92.113 14.1512 92.1192 14.1642 92.1297 14.1733C94.0363 15.8257 94.9925 18.2104 94.9925 21.3355C94.9925 21.3558 95.0047 21.374 95.0233 21.3817C95.042 21.3895 95.0635 21.3852 95.0778 21.3709L98.6134 17.8354Z" stroke="black" stroke-width="0.1" stroke-linejoin="round"/>
<path d="M95.7334 10.6353C95.743 10.6258 95.7482 10.6127 95.748 10.5991C95.7478 10.5855 95.742 10.5726 95.7321 10.5634C93.8641 8.82421 91.2263 7.958 87.826 7.958C87.8127 7.958 87.8 7.96326 87.7906 7.97264L84.2551 11.5082C84.2408 11.5225 84.2365 11.544 84.2443 11.5627C84.252 11.5813 84.2702 11.5935 84.2905 11.5935C87.6742 11.5935 90.2844 12.4553 92.1284 14.1721C92.1481 14.1905 92.1788 14.1899 92.1978 14.1709L95.7334 10.6353Z" stroke="black" stroke-width="0.1" stroke-linejoin="round"/>
<path d="M98.6134 22.8273C98.6227 22.818 98.628 22.8052 98.628 22.792V17.8C98.628 17.7798 98.6158 17.7615 98.5971 17.7538C98.5785 17.7461 98.557 17.7503 98.5427 17.7646L95.0071 21.3002C94.9977 21.3095 94.9925 21.3223 94.9925 21.3355V26.3275C94.9925 26.3477 95.0047 26.366 95.0233 26.3737C95.042 26.3815 95.0635 26.3772 95.0778 26.3629L98.6134 22.8273Z" stroke="black" stroke-width="0.1" stroke-linejoin="round"/>
<path d="M107.172 20.296C107.172 20.2758 107.16 20.2575 107.141 20.2498C107.122 20.2421 107.101 20.2463 107.087 20.2606L103.551 23.7962C103.542 23.8055 103.536 23.8183 103.536 23.8315C103.536 29.2628 102.131 33.6021 99.3246 36.8549C99.3071 36.8752 99.3087 36.9058 99.3285 36.9242C99.3482 36.9425 99.3788 36.9419 99.3978 36.9229L102.933 33.3873L102.933 33.3874L102.936 33.3846C105.762 30.1094 107.172 25.7447 107.172 20.296Z" stroke="black" stroke-width="0.1" stroke-linejoin="round"/>
<path d="M63.634 0.95C63.6208 0.95 63.6081 0.955268 63.5987 0.964645L60.0632 4.50018C60.0489 4.51448 60.0446 4.53598 60.0523 4.55467C60.0601 4.57335 60.0783 4.58553 60.0985 4.58553H84.4825C84.4958 4.58553 84.5085 4.58027 84.5179 4.57089L88.0534 1.03536C88.0677 1.02106 88.072 0.99955 88.0642 0.980866C88.0565 0.962182 88.0383 0.95 88.018 0.95H63.634Z" stroke="black" stroke-width="0.1" stroke-linejoin="round"/>
<path d="M87.8614 8.04335C87.8757 8.02905 87.8799 8.00755 87.8722 7.98886C87.8645 7.97018 87.8462 7.958 87.826 7.958H71.698C71.6847 7.958 71.672 7.96326 71.6627 7.97264L68.1271 11.5082C68.1128 11.5225 68.1085 11.544 68.1163 11.5627C68.124 11.5813 68.1423 11.5935 68.1625 11.5935H84.2905C84.3037 11.5935 84.3165 11.5883 84.3258 11.5789L87.8614 8.04335Z" stroke="black" stroke-width="0.1" stroke-linejoin="round"/>
<path d="M94.9925 26.3275C94.9925 29.0918 94.2443 31.3018 92.7524 32.9628L92.1271 33.5882C92.108 33.6073 92.1075 33.6383 92.1262 33.6579C92.1449 33.6776 92.1758 33.6788 92.1959 33.6607C92.4184 33.4605 92.6281 33.2508 92.825 33.0317L95.7324 30.1243C97.6645 28.3848 98.628 25.9383 98.628 22.792C98.628 22.7718 98.6158 22.7535 98.5971 22.7458C98.5785 22.7381 98.557 22.7423 98.5427 22.7566L95.0071 26.2922C94.9977 26.3015 94.9925 26.3143 94.9925 26.3275Z" stroke="black" stroke-width="0.1" stroke-linejoin="round"/>
<path d="M102.936 33.3847C102.953 33.3643 102.952 33.3337 102.932 33.3154C102.912 33.2971 102.882 33.2976 102.863 33.3166L101.33 34.8495C98.6396 37.168 95.0661 38.5414 90.6053 38.9662C90.5937 38.9673 90.5829 38.9724 90.5746 38.9806L87.0391 42.5162C87.0242 42.5311 87.0202 42.5538 87.0292 42.5728C87.0382 42.5919 87.0582 42.6033 87.0792 42.6013C92.4639 42.0885 96.5727 40.1968 99.3991 36.9216L101.398 34.9229C101.947 34.4493 102.46 33.9366 102.936 33.3847Z" stroke="black" stroke-width="0.1" stroke-linejoin="round"/>
<path d="M87.826 32.534C87.8127 32.534 87.8 32.5393 87.7906 32.5487L84.2551 36.0842C84.2408 36.0985 84.2365 36.12 84.2443 36.1387C84.252 36.1574 84.2702 36.1695 84.2905 36.1695C87.6903 36.1695 90.3278 35.3356 92.1959 33.6608L92.1959 33.6608L92.1978 33.6589L95.7334 30.1234C95.7525 30.1042 95.7529 30.0733 95.7343 30.0536C95.7157 30.034 95.6848 30.0327 95.6646 30.0508C93.8207 31.704 91.2102 32.534 87.826 32.534Z" stroke="black" stroke-width="0.1" stroke-linejoin="round"/>
<path d="M71.748 8.008C71.748 7.98777 71.7358 7.96954 71.7171 7.9618C71.6985 7.95406 71.677 7.95834 71.6627 7.97264L68.1271 11.5082C68.1177 11.5176 68.1125 11.5303 68.1125 11.5435V36.1195C68.1125 36.1398 68.1247 36.158 68.1433 36.1657C68.162 36.1735 68.1835 36.1692 68.1978 36.1549L71.7334 32.6193C71.7427 32.61 71.748 32.5973 71.748 32.584V8.008Z" stroke="black" stroke-width="0.1" stroke-linejoin="round"/>
<path d="M71.698 32.534C71.6847 32.534 71.672 32.5393 71.6627 32.5486L68.1271 36.0842C68.1128 36.0985 68.1085 36.12 68.1163 36.1387C68.124 36.1573 68.1423 36.1695 68.1625 36.1695H84.2905C84.3037 36.1695 84.3165 36.1643 84.3258 36.1549L87.8614 32.6193C87.8757 32.605 87.8799 32.5835 87.8722 32.5649C87.8645 32.5462 87.8462 32.534 87.826 32.534H71.698Z" stroke="black" stroke-width="0.1" stroke-linejoin="round"/>
<path d="M90.6531 38.9906C90.6452 38.9773 90.6316 38.9683 90.6163 38.9664C90.601 38.9644 90.5856 38.9697 90.5746 38.9806L87.0391 42.5162C87.023 42.5323 87.0198 42.5573 87.0314 42.5769L104.119 71.5689C104.127 71.5822 104.141 71.5912 104.156 71.5931C104.172 71.5951 104.187 71.5898 104.198 71.5789L107.733 68.0434C107.749 68.0272 107.753 68.0022 107.741 67.9826L90.6531 38.9906Z" stroke="black" stroke-width="0.1" stroke-linejoin="round"/>
<path d="M82.3894 39.4353C82.4037 39.421 82.4079 39.3995 82.4002 39.3809C82.3925 39.3622 82.3742 39.35 82.354 39.35H71.698C71.6847 39.35 71.672 39.3553 71.6627 39.3646L68.1271 42.9002C68.1128 42.9145 68.1085 42.936 68.1163 42.9547C68.124 42.9733 68.1423 42.9855 68.1625 42.9855H78.8185C78.8317 42.9855 78.8445 42.9803 78.8538 42.9709L82.3894 39.4353Z" stroke="black" stroke-width="0.1" stroke-linejoin="round"/>
<path d="M98.7094 68.0434C98.7253 68.0274 98.7286 68.0028 98.7174 67.9832L82.3974 39.3752C82.3897 39.3617 82.3761 39.3525 82.3607 39.3504C82.3452 39.3484 82.3297 39.3536 82.3187 39.3646L78.7831 42.9002C78.7672 42.9161 78.7639 42.9407 78.7751 42.9603L95.0951 71.5683C95.1028 71.5818 95.1164 71.591 95.1318 71.5931C95.1473 71.5952 95.1628 71.5899 95.1738 71.5789L98.7094 68.0434Z" stroke="black" stroke-width="0.1" stroke-linejoin="round"/>
<path d="M107.733 68.0434C107.748 68.0291 107.752 68.0075 107.744 67.9889C107.736 67.9702 107.718 67.958 107.698 67.958H98.674C98.6608 67.958 98.648 67.9633 98.6387 67.9726L95.1031 71.5082C95.0888 71.5225 95.0846 71.544 95.0923 71.5627C95.1 71.5813 95.1183 71.5935 95.1385 71.5935H104.162C104.176 71.5935 104.188 71.5883 104.198 71.5789L107.733 68.0434Z" stroke="black" stroke-width="0.1" stroke-linejoin="round"/>
<path d="M63.6694 68.0434C63.6788 68.034 63.684 68.0213 63.684 68.008V1C63.684 0.979777 63.6719 0.961545 63.6532 0.953806C63.6345 0.946067 63.613 0.950345 63.5987 0.964645L60.0632 4.50018C60.0538 4.50956 60.0485 4.52227 60.0485 4.53553V71.5435C60.0485 71.5638 60.0607 71.582 60.0794 71.5897C60.0981 71.5975 60.1196 71.5932 60.1339 71.5789L63.6694 68.0434Z" stroke="black" stroke-width="0.1" stroke-linejoin="round"/>
<path d="M11.2555 0.95C11.2422 0.95 11.2295 0.955268 11.2201 0.964645L7.68462 4.50018C7.67032 4.51448 7.66604 4.53598 7.67378 4.55467C7.68152 4.57335 7.69975 4.58553 7.71997 4.58553H39.976C39.9892 4.58553 40.0019 4.58027 40.0113 4.57089L43.5469 1.03536C43.5612 1.02106 43.5654 0.99955 43.5577 0.980866C43.55 0.962182 43.5317 0.95 43.5115 0.95H11.2555Z" stroke="black" stroke-width="0.1" stroke-linejoin="round"/>
<path d="M71.748 39.4C71.748 39.3798 71.7358 39.3615 71.7171 39.3538C71.6985 39.3461 71.677 39.3503 71.6627 39.3646L68.1271 42.9002C68.1177 42.9095 68.1125 42.9223 68.1125 42.9355V71.5435C68.1125 71.5638 68.1247 71.582 68.1433 71.5897C68.162 71.5975 68.1835 71.5932 68.1978 71.5789L71.7334 68.0434C71.7427 68.034 71.748 68.0213 71.748 68.008V39.4Z" stroke="black" stroke-width="0.1" stroke-linejoin="round"/>
<path d="M43.5615 1C43.5615 0.979777 43.5494 0.961545 43.5307 0.953806C43.512 0.946067 43.4905 0.950345 43.4762 0.964645L39.9407 4.50018C39.9313 4.50956 39.926 4.52227 39.926 4.53553V54.1675C39.926 54.1878 39.9382 54.206 39.9569 54.2137C39.9756 54.2215 39.9971 54.2172 40.0114 54.2029L43.5469 50.6674C43.5563 50.658 43.5615 50.6453 43.5615 50.632V1Z" stroke="black" stroke-width="0.1" stroke-linejoin="round"/>
<path d="M35.4829 8.04335C35.4972 8.02905 35.5014 8.00755 35.4937 7.98886C35.486 7.97018 35.4677 7.958 35.4475 7.958H11.2555C11.2422 7.958 11.2295 7.96326 11.2201 7.97264L7.68462 11.5082C7.67032 11.5225 7.66604 11.544 7.67378 11.5627C7.68152 11.5813 7.69975 11.5935 7.71997 11.5935H31.912C31.9252 11.5935 31.938 11.5883 31.9473 11.5789L35.4829 8.04335Z" stroke="black" stroke-width="0.1" stroke-linejoin="round"/>
<path d="M35.4829 49.2273C35.4923 49.218 35.4975 49.2053 35.4975 49.192V8.008C35.4975 7.98777 35.4853 7.96954 35.4667 7.9618C35.448 7.95406 35.4265 7.95834 35.4122 7.97264L31.8766 11.5082C31.8673 11.5176 31.862 11.5303 31.862 11.5435V52.7275C31.862 52.7478 31.8742 52.766 31.8929 52.7737C31.9115 52.7815 31.933 52.7772 31.9473 52.7629L35.4829 49.2273Z" stroke="black" stroke-width="0.1" stroke-linejoin="round"/>
<path d="M11.2909 8.04336C11.3002 8.03398 11.3055 8.02126 11.3055 8.008V1C11.3055 0.979777 11.2933 0.961545 11.2746 0.953806C11.256 0.946067 11.2344 0.950345 11.2201 0.964645L7.68462 4.50018C7.67524 4.50956 7.66997 4.52227 7.66997 4.53553V11.5435C7.66997 11.5638 7.68215 11.582 7.70084 11.5897C7.71952 11.5975 7.74103 11.5932 7.75533 11.5789L11.2909 8.04336Z" stroke="black" stroke-width="0.1" stroke-linejoin="round"/>
<path d="M71.7334 68.0434C71.7477 68.0291 71.752 68.0075 71.7442 67.9889C71.7365 67.9702 71.7183 67.958 71.698 67.958H63.634C63.6208 67.958 63.6081 67.9633 63.5987 67.9726L60.0632 71.5082C60.0489 71.5225 60.0446 71.544 60.0523 71.5627C60.0601 71.5813 60.0783 71.5935 60.0985 71.5935H68.1625C68.1758 71.5935 68.1885 71.5883 68.1979 71.5789L71.7334 68.0434Z" stroke="black" stroke-width="0.1" stroke-linejoin="round"/>
<path d="M43.5615 50.632C43.5615 50.6118 43.5494 50.5935 43.5307 50.5858C43.512 50.5781 43.4905 50.5823 43.4762 50.5966L39.9407 54.1322C39.9313 54.1415 39.926 54.1543 39.926 54.1675C39.926 56.9778 39.447 59.5311 38.4899 61.8283C38.4807 61.8503 38.4884 61.8758 38.5082 61.8891C38.528 61.9024 38.5545 61.8998 38.5714 61.8829L42.1069 58.3473C42.1115 58.3427 42.1152 58.3372 42.1177 58.3312C43.0805 56.0204 43.5615 53.4537 43.5615 50.632Z" stroke="black" stroke-width="0.1" stroke-linejoin="round"/>
<path d="M32.4109 59.0194L32.4114 59.0188C34.4721 56.8937 35.4975 53.6146 35.4975 49.192C35.4975 49.1718 35.4853 49.1536 35.4666 49.1458C35.448 49.1381 35.4264 49.1424 35.4121 49.1567L31.8766 52.6922C31.8672 52.7016 31.862 52.7143 31.862 52.7276C31.862 57.137 30.8394 60.3858 28.8041 62.4847C28.785 62.5045 28.7853 62.5359 28.8049 62.5552C28.8245 62.5744 28.8559 62.5743 28.8753 62.5549L28.8759 62.5544L32.4109 59.0194Z" stroke="black" stroke-width="0.1" stroke-linejoin="round"/>
<path d="M42.0994 58.2705C42.1192 58.2838 42.1269 58.3092 42.1177 58.3312C41.2775 60.3477 40.1193 62.0959 38.6429 63.5753L38.6429 63.5753L35.1074 67.1108L35.1074 67.1109C35.0879 67.1304 35.0562 67.1304 35.0367 67.1109C35.0172 67.0914 35.0171 67.0597 35.0366 67.0402C35.0366 67.0402 35.0367 67.0402 35.0367 67.0402L42.0994 58.2705ZM42.0994 58.2705C42.0795 58.2572 42.0531 58.2598 42.0362 58.2767L38.5007 61.8122C38.496 61.8168 38.4924 61.8223 38.4899 61.8283C37.6545 63.8332 36.5035 65.5702 35.0369 67.0399L42.0994 58.2705Z" stroke="black" stroke-width="0.1" stroke-linejoin="round"/>
<path d="M38.5721 63.5046C38.5917 63.4851 38.6233 63.4851 38.6428 63.5046C38.6624 63.5241 38.6624 63.5558 38.6429 63.5753L38.6429 63.5753L38.6198 63.5984L38.6198 63.5984L35.1074 67.1108C34.8921 67.3266 34.67 67.5366 34.4413 67.7408C34.4211 67.7589 34.3902 67.7575 34.3716 67.7379C34.353 67.7182 34.3535 67.6873 34.3726 67.6682L37.9081 64.1326L37.9101 64.1306L37.9102 64.1307C38.1294 63.935 38.3424 63.734 38.5491 63.5277L38.5491 63.5276M38.5721 63.5046L38.5491 63.5276M38.5721 63.5046L38.5721 63.5047L38.5721 63.5046ZM38.5491 63.5276L38.5844 63.5629L38.5491 63.5276L38.5492 63.5276C38.5491 63.5276 38.5491 63.5276 38.5491 63.5276Z" stroke="black" stroke-width="0.1" stroke-linejoin="round"/>
<path d="M37.9789 64.2034C37.9981 64.1841 37.9984 64.153 37.9795 64.1333C37.9606 64.1137 37.9295 64.1128 37.9095 64.1313C36.1868 65.7264 34.1127 66.9711 31.6862 67.8651C31.6794 67.8676 31.6733 67.8715 31.6681 67.8766L28.1326 71.4122C28.116 71.4288 28.1132 71.4547 28.1259 71.4745C28.1385 71.4943 28.1632 71.5026 28.1853 71.4945C30.6228 70.5964 32.7086 69.3451 34.4419 67.7402L34.442 67.7402L34.4433 67.7389L37.9789 64.2034Z" stroke="black" stroke-width="0.1" stroke-linejoin="round"/>
<path d="M23.9275 62.006C23.9142 62.006 23.9015 62.0113 23.8921 62.0207L20.3566 65.5562C20.3423 65.5705 20.338 65.592 20.3458 65.6107C20.3535 65.6294 20.3717 65.6415 20.392 65.6415C24.0493 65.6415 26.8797 64.6147 28.8756 62.5546C28.8757 62.5545 28.8758 62.5544 28.8759 62.5543L32.2021 59.2281C32.2022 59.228 32.2023 59.2279 32.2024 59.2279C32.273 59.1594 32.3427 59.0897 32.4114 59.0188C32.4305 58.9991 32.4301 58.9676 32.4106 58.9484C32.391 58.9291 32.3596 58.9292 32.3401 58.9487L32.3396 58.9492L32.1325 59.1563C32.1324 59.1564 32.1323 59.1565 32.1322 59.1566C30.173 61.0542 27.4404 62.006 23.9275 62.006Z" stroke="black" stroke-width="0.1" stroke-linejoin="round"/>
<path d="M19.1453 61.2413C19.1269 61.2343 19.1061 61.2387 19.0922 61.2526L15.5566 64.7882C15.5446 64.8002 15.5395 64.8174 15.5431 64.834C15.5466 64.8506 15.5583 64.8642 15.5742 64.8703C16.9252 65.3849 18.5316 65.6415 20.392 65.6415C20.4052 65.6415 20.418 65.6363 20.4273 65.6269L23.9629 62.0913C23.9772 62.077 23.9814 62.0555 23.9737 62.0369C23.966 62.0182 23.9477 62.006 23.9275 62.006C22.0759 62.006 20.4822 61.7506 19.1453 61.2413Z" stroke="black" stroke-width="0.1" stroke-linejoin="round"/>
<path d="M31.7389 67.9473C31.7554 67.9309 31.7583 67.9053 31.746 67.8855C31.7337 67.8658 31.7094 67.8571 31.6874 67.8647C29.2612 68.6947 26.6107 69.11 23.7355 69.11C23.7223 69.11 23.7096 69.1153 23.7002 69.1246L20.1647 72.6602C20.1504 72.6745 20.1461 72.696 20.1538 72.7147C20.1616 72.7333 20.1798 72.7455 20.2 72.7455C23.0849 72.7455 25.7464 72.3288 28.1842 71.4948C28.1914 71.4924 28.198 71.4883 28.2034 71.4829L31.7389 67.9473Z" stroke="black" stroke-width="0.1" stroke-linejoin="round"/>
<path d="M12.2642 52.3484C12.26 52.3308 12.2466 52.3168 12.2291 52.3119C12.2117 52.3069 12.193 52.3118 12.1802 52.3246L8.64464 55.8602C8.63236 55.8724 8.62733 55.8902 8.63135 55.9071C8.95196 57.2536 9.3688 58.5363 9.88191 59.7549C9.88837 59.7703 9.90204 59.7814 9.91838 59.7846C9.93472 59.7878 9.95158 59.7826 9.96335 59.7709L13.4989 56.2353C13.5133 56.221 13.5175 56.1993 13.5096 56.1806C12.9987 54.9672 12.5836 53.6899 12.2642 52.3484Z" stroke="black" stroke-width="0.1" stroke-linejoin="round"/>
<path d="M15.7043 59.2342C15.6844 59.217 15.6547 59.2181 15.6362 59.2366L12.1006 62.7722C12.0908 62.782 12.0855 62.7954 12.086 62.8093C12.0865 62.8232 12.0928 62.8362 12.1032 62.8453C13.0682 63.6816 14.2254 64.3565 15.5742 64.8703C15.5926 64.8773 15.6134 64.8728 15.6273 64.8589L19.1629 61.3234C19.1749 61.3114 19.18 61.2941 19.1764 61.2775C19.1729 61.261 19.1612 61.2473 19.1453 61.2413C17.8061 60.7311 16.6593 60.0619 15.7043 59.2342Z" stroke="black" stroke-width="0.1" stroke-linejoin="round"/>
<path d="M13.5082 56.1777C13.501 56.1633 13.4874 56.1532 13.4715 56.1507C13.4557 56.1481 13.4395 56.1533 13.4282 56.1647L9.89262 59.7002C9.87741 59.7154 9.87363 59.7387 9.88326 59.7579C10.4616 60.9146 11.2008 61.943 12.1006 62.8429C12.1201 62.8624 12.1518 62.8624 12.1713 62.8429L15.7069 59.3074C15.7264 59.2878 15.7264 59.2562 15.7069 59.2367C14.8147 58.3445 14.0819 57.3249 13.5082 56.1777Z" stroke="black" stroke-width="0.1" stroke-linejoin="round"/>
<path d="M4.52514 53.9431C4.51569 53.9451 4.50701 53.9498 4.50018 53.9566L0.964645 57.4922C0.948986 57.5078 0.945493 57.5319 0.956058 57.5514C0.966624 57.5708 0.988732 57.581 1.01039 57.5764L8.69039 55.9444C8.69985 55.9424 8.70852 55.9377 8.71536 55.9309L12.2509 52.3953C12.2665 52.3797 12.27 52.3556 12.2595 52.3361C12.2489 52.3167 12.2268 52.3065 12.2051 52.3111L4.52514 53.9431Z" stroke="black" stroke-width="0.1" stroke-linejoin="round"/>
<path d="M23.7709 69.1954C23.7852 69.1811 23.7895 69.1596 23.7817 69.1409C23.774 69.1222 23.7558 69.11 23.7355 69.11C18.6244 69.11 14.412 67.8004 11.0945 65.1847C11.0746 65.169 11.0461 65.1707 11.0282 65.1886L7.49266 68.7242C7.48256 68.7343 7.47726 68.7482 7.4781 68.7625C7.47894 68.7767 7.48584 68.79 7.49706 68.7988C10.8356 71.4311 15.0712 72.7455 20.2 72.7455C20.2133 72.7455 20.226 72.7403 20.2354 72.7309L23.7709 69.1954Z" stroke="black" stroke-width="0.1" stroke-linejoin="round"/>
<path d="M11.0989 65.2594C11.1089 65.2493 11.1142 65.2355 11.1135 65.2214C11.1127 65.2072 11.106 65.194 11.095 65.1851C7.77716 62.5054 5.60641 58.7721 4.58443 53.9816C4.58061 53.9637 4.56729 53.9493 4.54972 53.9441C4.53214 53.9389 4.51314 53.9437 4.50018 53.9566L0.964645 57.4922C0.952663 57.5042 0.947565 57.5214 0.9511 57.538C1.97712 62.3474 4.15837 66.1022 7.49658 68.7984C7.51647 68.8145 7.54528 68.813 7.56336 68.7949L11.0989 65.2594Z" stroke="black" stroke-width="0.1" stroke-linejoin="round"/>
</g>
<defs>
<clipPath id="clip0_6_950">
<rect width="108" height="73" fill="white"/>
</clipPath>
</defs>
</svg>
