<svg width="446" height="74" viewBox="0 0 446 74" fill="none" xmlns="http://www.w3.org/2000/svg">
<path d="M8.704 72H0.64V4.992H25.024C31.232 4.992 35.968 6.688 39.232 10.08C42.496 13.472 44.128 18.208 44.128 24.288C44.128 29.728 42.72 34.08 39.904 37.344C37.088 40.608 32.992 42.496 27.616 43.008L44.704 72H35.68L19.36 43.392H8.704V72ZM24.832 36.576C28.224 36.576 30.848 35.744 32.704 34.08C34.624 32.352 35.584 29.92 35.584 26.784V21.792C35.584 18.656 34.624 16.256 32.704 14.592C30.848 12.864 28.224 12 24.832 12H8.704V36.576H24.832ZM81.4345 11.52C79.1945 11.52 77.6265 11.072 76.7305 10.176C75.8345 9.216 75.3865 8.032 75.3865 6.62399V5.088C75.3865 3.68 75.8345 2.528 76.7305 1.632C77.6265 0.671997 79.1945 0.191998 81.4345 0.191998C83.6745 0.191998 85.2425 0.671997 86.1385 1.632C87.0345 2.528 87.4825 3.68 87.4825 5.088V6.62399C87.4825 8.032 87.0345 9.216 86.1385 10.176C85.2425 11.072 83.6745 11.52 81.4345 11.52ZM59.7385 65.472H77.5945V28.992H59.7385V22.464H85.2745V65.472H101.979V72H59.7385V65.472ZM137.653 73.152C134.069 73.152 130.869 72.544 128.053 71.328C125.301 70.048 122.965 68.288 121.045 66.048C119.125 63.808 117.653 61.088 116.629 57.888C115.669 54.688 115.189 51.136 115.189 47.232C115.189 43.328 115.701 39.776 116.725 36.576C117.749 33.376 119.221 30.656 121.141 28.416C123.061 26.112 125.397 24.352 128.149 23.136C130.901 21.92 134.037 21.312 137.557 21.312C142.357 21.312 146.261 22.368 149.269 24.48C152.277 26.592 154.485 29.344 155.893 32.736L149.749 36C148.853 33.44 147.349 31.456 145.237 30.048C143.189 28.64 140.629 27.936 137.557 27.936C135.317 27.936 133.301 28.32 131.509 29.088C129.781 29.792 128.309 30.816 127.093 32.16C125.877 33.504 124.949 35.104 124.309 36.96C123.733 38.816 123.445 40.832 123.445 43.008V51.456C123.445 53.632 123.733 55.648 124.309 57.504C124.949 59.36 125.877 60.96 127.093 62.304C128.309 63.648 129.813 64.704 131.605 65.472C133.397 66.176 135.445 66.528 137.749 66.528C141.077 66.528 143.829 65.76 146.005 64.224C148.181 62.688 149.909 60.576 151.189 57.888L156.661 61.632C155.189 64.96 152.885 67.712 149.749 69.888C146.677 72.064 142.645 73.152 137.653 73.152ZM174.096 0.959999H181.776V30.528H182.16C182.672 29.312 183.312 28.16 184.08 27.072C184.848 25.92 185.776 24.928 186.864 24.096C188.016 23.264 189.36 22.592 190.896 22.08C192.432 21.568 194.224 21.312 196.272 21.312C201.456 21.312 205.616 22.976 208.752 26.304C211.888 29.568 213.456 34.208 213.456 40.224V72H205.776V41.568C205.776 37.024 204.784 33.664 202.8 31.488C200.816 29.248 197.904 28.128 194.064 28.128C192.528 28.128 191.024 28.32 189.552 28.704C188.08 29.088 186.768 29.664 185.616 30.432C184.464 31.2 183.536 32.192 182.832 33.408C182.128 34.624 181.776 36.032 181.776 37.632V72H174.096V0.959999ZM269.77 72C266.762 72 264.618 71.232 263.338 69.696C262.058 68.16 261.258 66.24 260.938 63.936H260.458C259.37 66.816 257.61 69.088 255.178 70.752C252.81 72.352 249.61 73.152 245.578 73.152C240.394 73.152 236.266 71.808 233.194 69.12C230.122 66.432 228.586 62.752 228.586 58.08C228.586 53.472 230.25 49.92 233.578 47.424C236.97 44.928 242.41 43.68 249.898 43.68H260.458V38.784C260.458 35.136 259.434 32.416 257.386 30.624C255.338 28.768 252.426 27.84 248.65 27.84C245.322 27.84 242.602 28.512 240.49 29.856C238.378 31.136 236.682 32.896 235.402 35.136L230.218 31.296C230.858 30.016 231.722 28.768 232.81 27.552C233.898 26.336 235.242 25.28 236.842 24.384C238.442 23.424 240.266 22.688 242.314 22.176C244.362 21.6 246.634 21.312 249.13 21.312C254.954 21.312 259.562 22.784 262.954 25.728C266.41 28.672 268.138 32.768 268.138 38.016V65.28H275.05V72H269.77ZM246.922 66.72C248.906 66.72 250.698 66.496 252.298 66.048C253.962 65.536 255.402 64.896 256.618 64.128C257.834 63.296 258.762 62.336 259.402 61.248C260.106 60.096 260.458 58.88 260.458 57.6V49.44H249.898C245.29 49.44 241.93 50.08 239.818 51.36C237.706 52.64 236.65 54.496 236.65 56.928V58.944C236.65 61.504 237.546 63.456 239.338 64.8C241.194 66.08 243.722 66.72 246.922 66.72ZM287.205 65.472H301.701V28.992H287.205V22.464H309.381V34.944H309.861C310.885 31.04 312.805 28 315.621 25.824C318.501 23.584 322.149 22.464 326.565 22.464H333.477V30.144H324.165C319.749 30.144 316.165 31.424 313.413 33.984C310.725 36.544 309.381 39.904 309.381 44.064V65.472H328.581V72H287.205V65.472ZM378.175 63.936H377.791C374.591 70.08 369.503 73.152 362.527 73.152C356.447 73.152 351.679 70.88 348.223 66.336C344.831 61.792 343.135 55.424 343.135 47.232C343.135 39.04 344.831 32.672 348.223 28.128C351.679 23.584 356.447 21.312 362.527 21.312C369.503 21.312 374.591 24.384 377.791 30.528H378.175V0.959999H385.855V72H378.175V63.936ZM365.503 66.336C367.231 66.336 368.863 66.112 370.399 65.664C371.935 65.216 373.279 64.576 374.431 63.744C375.583 62.848 376.479 61.792 377.119 60.576C377.823 59.296 378.175 57.824 378.175 56.16V38.304C378.175 36.64 377.823 35.2 377.119 33.984C376.479 32.704 375.583 31.648 374.431 30.816C373.279 29.92 371.935 29.248 370.399 28.8C368.863 28.352 367.231 28.128 365.503 28.128C361.023 28.128 357.535 29.504 355.039 32.256C352.607 34.944 351.391 38.528 351.391 43.008V51.456C351.391 55.936 352.607 59.552 355.039 62.304C357.535 64.992 361.023 66.336 365.503 66.336ZM424.314 73.152C419.13 73.152 414.65 72.288 410.874 70.56C407.162 68.768 403.994 66.4 401.37 63.456L406.554 58.944C408.922 61.44 411.514 63.36 414.33 64.704C417.146 66.048 420.538 66.72 424.506 66.72C428.346 66.72 431.482 66.048 433.914 64.704C436.41 63.296 437.658 61.12 437.658 58.176C437.658 56.896 437.402 55.84 436.89 55.008C436.442 54.112 435.802 53.408 434.97 52.896C434.138 52.384 433.21 52 432.186 51.744C431.162 51.424 430.074 51.168 428.922 50.976L421.146 49.824C419.418 49.568 417.53 49.216 415.482 48.768C413.498 48.32 411.674 47.616 410.01 46.656C408.346 45.632 406.938 44.288 405.786 42.624C404.698 40.96 404.154 38.784 404.154 36.096C404.154 33.6 404.634 31.456 405.594 29.664C406.618 27.808 408.026 26.272 409.818 25.056C411.61 23.776 413.722 22.848 416.154 22.272C418.586 21.632 421.242 21.312 424.122 21.312C428.602 21.312 432.474 22.016 435.738 23.424C439.066 24.832 441.914 26.784 444.281 29.28L439.29 33.984C438.714 33.28 437.978 32.576 437.082 31.872C436.25 31.104 435.194 30.432 433.914 29.856C432.698 29.216 431.258 28.704 429.594 28.32C427.93 27.936 426.01 27.744 423.834 27.744C419.93 27.744 416.922 28.416 414.81 29.76C412.762 31.104 411.738 33.056 411.738 35.616C411.738 36.896 411.962 37.984 412.41 38.88C412.922 39.712 413.594 40.384 414.426 40.896C415.258 41.408 416.186 41.824 417.21 42.144C418.298 42.4 419.386 42.624 420.474 42.816L428.25 43.968C430.042 44.224 431.93 44.576 433.914 45.024C435.898 45.472 437.722 46.208 439.386 47.232C441.05 48.192 442.426 49.504 443.514 51.168C444.666 52.832 445.242 55.008 445.242 57.696C445.242 62.624 443.322 66.432 439.482 69.12C435.706 71.808 430.65 73.152 424.314 73.152Z" fill="#FFF7F8"/>
</svg>
